<svg xmlns="http://www.w3.org/2000/svg" xmlns:xlink="http://www.w3.org/1999/xlink" id="Layer_1" x="0" y="0" enable-background="new 0 0 180 180" version="1.1" viewBox="0 0 180 180" xml:space="preserve"><style type="text/css">.st0{fill:none;stroke:#434343;stroke-miterlimit:10}</style><g><polyline points="0 29.3 21.1 29.3 50.4 0" class="st0"/><polyline points="50.4 180 55.1 175.4 55.1 154.5" class="st0"/><polyline points="0 19.9 21.1 19.9 39.1 2" class="st0"/><polyline points="0 10.4 21.1 10.4 31.5 0" class="st0"/><polyline points="31.4 180 39 172.4 39 136.2 24.8 122" class="st0"/><line x1="163.6" x2="180" y1="29.3" y2="29.3" class="st0"/><line x1="163.6" x2="180" y1="19.9" y2="19.9" class="st0"/><line x1="163.6" x2="180" y1="10.4" y2="10.4" class="st0"/><line x1="54.9" x2="54.9" y1="12" y2="22" class="st0"/><line x1="64.6" x2="64.6" y1="2.7" y2="22" class="st0"/><line x1="74.7" x2="74.7" y1="22" y2="12.3" class="st0"/><line x1="84.8" x2="84.8" y1="22" y2="2.7" class="st0"/><circle cx="55" cy="24.7" r="2.7" class="st0"/><circle cx="55" cy="38.9" r="2.7" class="st0"/><circle cx="55" cy="56.7" r="2.7" class="st0"/><circle cx="64.6" cy="24.7" r="2.7" class="st0"/><circle cx="74.7" cy="24.7" r="2.7" class="st0"/><circle cx="84.8" cy="24.7" r="2.7" class="st0"/><circle cx="84.8" cy="38.9" r="2.7" class="st0"/><circle cx="84.8" cy="70.3" r="2.7" class="st0"/><circle cx="73.9" cy="80.6" r="2.7" class="st0"/><circle cx="73.9" cy="90.2" r="2.7" class="st0"/><circle cx="73.9" cy="99.9" r="2.7" class="st0"/><circle cx="64.6" cy="99.9" r="2.7" class="st0"/><circle cx="55" cy="99.9" r="2.7" class="st0"/><circle cx="55" cy="90" r="2.7" class="st0"/><circle cx="44.2" cy="100.4" r="2.7" class="st0"/><circle cx="44.2" cy="110.5" r="2.7" class="st0"/><circle cx="55" cy="115.8" r="2.7" class="st0"/><circle cx="84.8" cy="108" r="2.7" class="st0"/><circle cx="162.6" cy="117.5" r="2.7" class="st0"/><circle cx="132.4" cy="134.6" r="2.7" class="st0"/><circle cx="55" cy="125.2" r="2.7" class="st0"/><circle cx="74.1" cy="125.2" r="2.7" class="st0"/><circle cx="84.8" cy="125.2" r="2.7" class="st0"/><circle cx="84.8" cy="156.6" r="2.7" class="st0"/><circle cx="95.2" cy="167.8" r="2.7" class="st0"/><circle cx="84.7" cy="167.8" r="2.7" class="st0"/><circle cx="23.1" cy="80.6" r="2.7" class="st0"/><circle cx="23.1" cy="91.6" r="2.7" class="st0"/><circle cx="23.1" cy="100.7" r="2.7" class="st0"/><circle cx="23.1" cy="110.5" r="2.7" class="st0"/><circle cx="64.6" cy="142" r="2.7" class="st0"/><circle cx="64.6" cy="151.8" r="2.7" class="st0"/><circle cx="64.6" cy="167.9" r="2.7" class="st0"/><circle cx="55.1" cy="151.8" r="2.7" class="st0"/><circle cx="8.2" cy="144.2" r="2.7" class="st0"/><circle cx="8.2" cy="170.5" r="2.7" class="st0"/><circle cx="18" cy="134.6" r="2.7" class="st0"/><circle cx="18" cy="170.5" r="2.7" class="st0"/><circle cx="27.9" cy="144.2" r="2.7" class="st0"/><circle cx="27.9" cy="170.5" r="2.7" class="st0"/><circle cx="23.1" cy="119.9" r="2.7" class="st0"/><circle cx="170.4" cy="80.6" r="2.7" class="st0"/><circle cx="160.7" cy="80.6" r="2.7" class="st0"/><circle cx="23.1" cy="61.7" r="2.7" class="st0"/><circle cx="12.7" cy="69.9" r="2.7" class="st0"/><circle cx="33.5" cy="80.6" r="2.7" class="st0"/><circle cx="64.6" cy="80.6" r="2.7" class="st0"/><circle cx="54.9" cy="80.6" r="2.7" class="st0"/><circle cx="64.6" cy="70.3" r="2.7" class="st0"/><circle cx="54.9" cy="70.3" r="2.7" class="st0"/><circle cx="55" cy="9.3" r="2.7" class="st0"/><circle cx="40.8" cy="28.1" r="2.7" class="st0"/><circle cx="31.4" cy="28.1" r="2.7" class="st0"/><circle cx="40.8" cy="38.9" r="2.7" class="st0"/><circle cx="31.4" cy="38.9" r="2.7" class="st0"/><path d="M67.3,0c0,1.5-1.2,2.7-2.7,2.7S62,1.5,62,0" class="st0"/><path d="M180,128c-1.5,0-2.7-1.2-2.7-2.7c0-1.5,1.2-2.7,2.7-2.7" class="st0"/><path d="M180,137.3c-1.5,0-2.7-1.2-2.7-2.7s1.2-2.7,2.7-2.7" class="st0"/><path d="M0,128c1.5,0,2.7-1.2,2.7-2.7c0-1.5-1.2-2.7-2.7-2.7" class="st0"/><path d="M0,137.3c1.5,0,2.7-1.2,2.7-2.7s-1.2-2.7-2.7-2.7" class="st0"/><path d="M43.4,0c0,1.5-1.2,2.7-2.7,2.7c-1.5,0-2.7-1.2-2.7-2.7" class="st0"/><path d="M38.1,180c0-1.5,1.2-2.7,2.7-2.7c1.5,0,2.7,1.2,2.7,2.7" class="st0"/><circle cx="74.7" cy="9.3" r="2.7" class="st0"/><path d="M87.4,0c0,1.5-1.2,2.7-2.7,2.7c-1.5,0-2.7-1.2-2.7-2.7" class="st0"/><path d="M82.1,180c0-1.5,1.2-2.7,2.7-2.7c1.5,0,2.7,1.2,2.7,2.7" class="st0"/><path d="M62,180c0-1.5,1.2-2.7,2.7-2.7s2.7,1.2,2.7,2.7" class="st0"/><path d="M173,0.1c0,1.5-1.2,2.7-2.7,2.7c-1.5,0-2.7-1.2-2.7-2.7" class="st0"/><line x1="31.4" x2="31.4" y1="30.7" y2="36.3" class="st0"/><line x1="40.8" x2="40.8" y1="30.7" y2="36.3" class="st0"/><line x1="0" x2="46.3" y1="47.5" y2="47.5" class="st0"/><line x1="173" x2="180" y1="47.5" y2="47.5" class="st0"/><polyline points="53 40.7 46.3 47.5 53.6 54.3" class="st0"/><line x1="57.7" x2="82.1" y1="38.9" y2="38.9" class="st0"/><polyline points="84.8 36.3 95.3 25.7 95.3 0" class="st0"/><line x1="84.8" x2="84.8" y1="41.6" y2="67.6" class="st0"/><circle cx="94.2" cy="38.9" r="2.7" class="st0"/><circle cx="94.2" cy="70.3" r="2.7" class="st0"/><polyline points="94.2 36.3 104.7 25.7 104.7 0" class="st0"/><line x1="94.2" x2="94.2" y1="41.6" y2="67.6" class="st0"/><circle cx="103.8" cy="38.9" r="2.7" class="st0"/><circle cx="123.1" cy="38.9" r="2.7" class="st0"/><circle cx="113.5" cy="60.6" r="2.7" class="st0"/><circle cx="132.4" cy="38.9" r="2.7" class="st0"/><circle cx="132.4" cy="60.6" r="2.7" class="st0"/><circle cx="132.4" cy="29.3" r="2.7" class="st0"/><circle cx="132.4" cy="19.9" r="2.7" class="st0"/><circle cx="132.4" cy="10.4" r="2.7" class="st0"/><circle cx="141.9" cy="10.4" r="2.7" class="st0"/><circle cx="151.2" cy="10.4" r="2.7" class="st0"/><circle cx="160.7" cy="10.4" r="2.7" class="st0"/><circle cx="160.7" cy="29.4" r="2.7" class="st0"/><circle cx="160.7" cy="19.9" r="2.7" class="st0"/><circle cx="141.9" cy="38.9" r="2.7" class="st0"/><circle cx="141.9" cy="70.3" r="2.7" class="st0"/><circle cx="151.2" cy="38.9" r="2.7" class="st0"/><circle cx="160.9" cy="38.9" r="2.7" class="st0"/><circle cx="160.9" cy="70.3" r="2.7" class="st0"/><circle cx="170.4" cy="70.3" r="2.7" class="st0"/><circle cx="170.4" cy="47.5" r="2.7" class="st0"/><circle cx="103.8" cy="70.3" r="2.7" class="st0"/><polyline points="103.8 36.3 114.3 25.7 114.3 0" class="st0"/><line x1="95.3" x2="95.3" y1="180" y2="170.5" class="st0"/><line x1="104.7" x2="104.7" y1="180" y2="170.5" class="st0"/><line x1="114.3" x2="114.3" y1="180" y2="170.5" class="st0"/><line x1="103.8" x2="103.8" y1="41.6" y2="67.6" class="st0"/><line x1="132.4" x2="132.4" y1="41.6" y2="57.9" class="st0"/><line x1="125.8" x2="129.7" y1="38.9" y2="38.9" class="st0"/><line x1="116.2" x2="129.7" y1="60.6" y2="60.6" class="st0"/><circle cx="113.5" cy="70.3" r="2.7" class="st0"/><circle cx="132.4" cy="70.3" r="2.7" class="st0"/><line x1="116.2" x2="129.7" y1="70.3" y2="70.3" class="st0"/><line x1="141.9" x2="141.9" y1="41.6" y2="67.6" class="st0"/><polyline points="151.2 41.6 151.2 60.6 159 68.4" class="st0"/><line x1="160.9" x2="160.9" y1="42.2" y2="67.7" class="st0"/><line x1="170.4" x2="170.4" y1="49.8" y2="67.7" class="st0"/><line x1="151.2" x2="151.2" y1="0" y2="7.7" class="st0"/><line x1="160.7" x2="160.7" y1="0" y2="7.7" class="st0"/><path d="M173,180c0-1.5-1.2-2.7-2.7-2.7c-1.5,0-2.7,1.2-2.7,2.7" class="st0"/><line x1="151.2" x2="151.2" y1="170.5" y2="180" class="st0"/><line x1="160.7" x2="160.7" y1="170.5" y2="180" class="st0"/><line x1="170.4" x2="170.4" y1="159.3" y2="177.6" class="st0"/><polyline points="25.3 61.7 73.9 61.7 73.9 78.1" class="st0"/><polyline points="76.8 80.6 146.7 80.6 157.7 91.6 180 91.6" class="st0"/><line x1="54.9" x2="54.9" y1="73" y2="78" class="st0"/><line x1="64.6" x2="64.6" y1="73" y2="78" class="st0"/><line x1="0" x2="20.5" y1="80.6" y2="80.6" class="st0"/><line x1="0" x2="20.5" y1="91.6" y2="91.6" class="st0"/><line x1="0" x2="20.5" y1="100.7" y2="100.7" class="st0"/><line x1="0" x2="20.5" y1="110.5" y2="110.5" class="st0"/><polyline points="180 100.7 157.3 100.7 146.7 90.2 76.8 90.2" class="st0"/><line x1="173" x2="180" y1="80.6" y2="80.6" class="st0"/><line x1="14.4" x2="21.3" y1="71.9" y2="78.7" class="st0"/><line x1="23.1" x2="23.1" y1="94.3" y2="98" class="st0"/><line x1="24.9" x2="31.9" y1="89.5" y2="82.6" class="st0"/><line x1="24.9" x2="62.4" y1="102.7" y2="140.2" class="st0"/><line x1="24.9" x2="62.4" y1="112.2" y2="149.8" class="st0"/><polyline points="180 110.5 157.3 110.5 146.7 99.9 76.8 99.9" class="st0"/><line x1="52.9" x2="46" y1="91.6" y2="98.5" class="st0"/><line x1="52.9" x2="46" y1="101.9" y2="108.8" class="st0"/><polyline points="87.4 108 114.1 108 123.6 117.5 159.9 117.5" class="st0"/><polyline points="57.7 115.8 114 115.8 123.6 125.4 177.4 125.4" class="st0"/><line x1="123.6" x2="123.6" y1="125.4" y2="153.9" class="st0"/><line x1="132.4" x2="132.4" y1="159.3" y2="165.4" class="st0"/><line x1="135.1" x2="177.4" y1="134.6" y2="134.6" class="st0"/><circle cx="132.4" cy="144.2" r="2.7" class="st0"/><line x1="135.1" x2="180" y1="144.2" y2="144.2" class="st0"/><line x1="0" x2="5.5" y1="144.2" y2="144.2" class="st0"/><line x1="57.7" x2="71.4" y1="125.2" y2="125.2" class="st0"/><line x1="84.8" x2="84.8" y1="128" y2="153.9" class="st0"/><line x1="8.2" x2="8.2" y1="146.9" y2="167.5" class="st0"/><line x1="27.9" x2="27.9" y1="146.9" y2="167.5" class="st0"/><line x1="18" x2="18" y1="137.3" y2="167.9" class="st0"/><line x1="86.4" x2="93.4" y1="158.7" y2="165.7" class="st0"/><circle cx="94.3" cy="125.2" r="2.7" class="st0"/><circle cx="94.3" cy="156.6" r="2.7" class="st0"/><circle cx="104.7" cy="167.8" r="2.7" class="st0"/><line x1="94.3" x2="94.3" y1="128" y2="153.9" class="st0"/><line x1="96" x2="102.9" y1="158.7" y2="165.7" class="st0"/><circle cx="103.7" cy="125.2" r="2.7" class="st0"/><circle cx="103.7" cy="156.6" r="2.7" class="st0"/><circle cx="114.1" cy="167.8" r="2.7" class="st0"/><line x1="103.7" x2="103.7" y1="128" y2="153.9" class="st0"/><line x1="105.4" x2="112.3" y1="158.7" y2="165.7" class="st0"/><circle cx="114.1" cy="125.2" r="2.7" class="st0"/><circle cx="114.1" cy="156.6" r="2.7" class="st0"/><circle cx="123.7" cy="156.6" r="2.7" class="st0"/><circle cx="132.4" cy="156.6" r="2.7" class="st0"/><circle cx="151.2" cy="156.6" r="2.7" class="st0"/><circle cx="160.7" cy="156.6" r="2.7" class="st0"/><circle cx="151.2" cy="167.8" r="2.7" class="st0"/><circle cx="160.7" cy="167.8" r="2.7" class="st0"/><circle cx="170.4" cy="156.6" r="2.7" class="st0"/><circle cx="132.4" cy="168.1" r="2.7" class="st0"/><line x1="114.1" x2="114.1" y1="128" y2="153.9" class="st0"/><line x1="135.1" x2="148.5" y1="156.6" y2="156.6" class="st0"/><line x1="67.3" x2="82" y1="167.9" y2="167.9" class="st0"/></g></svg>